<svg version="1.1" xmlns="http://www.w3.org/2000/svg" xmlns:xlink="http://www.w3.org/1999/xlink" width="137.05714" height="117.5831" viewBox="0,0,137.05714,117.5831"><g transform="translate(-164.78031,-112.47838)"><g data-paper-data="{&quot;isPaintingLayer&quot;:true}" fill-rule="nonzero" stroke-linejoin="miter" stroke-miterlimit="10" stroke-dasharray="" stroke-dashoffset="0" style="mix-blend-mode: normal"><g><path d="M226.38131,141.53605l-13.94888,-25.26045l68.6615,-0.58601l19.28923,25.21487z" fill="#5995ff" stroke="#5995ff" stroke-width="0" stroke-linecap="butt"/><path d="M223.89099,143.00756l72.50755,-0.61883" fill="#5995ff" stroke="#5995ff" stroke-width="9" stroke-linecap="round"/><path d="M225.71275,142.99201l-13.42821,-24.43617" fill="#5995ff" stroke="#5995ff" stroke-width="9" stroke-linecap="round"/><path d="M277.07187,116.97838l-67.42985,0.5755" fill="#5995ff" stroke="#5995ff" stroke-width="9" stroke-linecap="round"/><path d="M198.23087,172.02101l-28.51297,-4.43527l41.57169,-54.64924l31.74634,0.18477z" fill="#4f85e2" stroke="#4f85e2" stroke-width="0" stroke-linecap="butt"/><path d="M199.42958,174.94766l43.90032,-57.71039" fill="#4f85e2" stroke="#4f85e2" stroke-width="9" stroke-linecap="round"/><path d="M198.97279,173.44099l-27.54245,-4.34235" fill="#4f85e2" stroke="#4f85e2" stroke-width="9" stroke-linecap="round"/><path d="M169.28031,170.59399l40.50298,-53.02293" fill="#4f85e2" stroke="#4f85e2" stroke-width="9" stroke-linecap="round"/><path d="M301.34682,200.04471l-18.85605,25.54042l-68.6615,0.58601l13.51571,-25.49484z" data-paper-data="{&quot;index&quot;:null}" fill="#5995ff" stroke="#5995ff" stroke-width="0" stroke-linecap="butt"/><path d="M224.8299,199.24751l72.50755,-0.61883" data-paper-data="{&quot;index&quot;:null}" fill="#5995ff" stroke="#5995ff" stroke-width="9" stroke-linecap="round"/><path d="M213.64249,223.89377l13.00917,-24.66181" data-paper-data="{&quot;index&quot;:null}" fill="#5995ff" stroke="#5995ff" stroke-width="9" stroke-linecap="round"/><path d="M278.44731,224.36518l-67.42985,0.5755" data-paper-data="{&quot;index&quot;:null}" fill="#5995ff" stroke="#5995ff" stroke-width="9" stroke-linecap="round"/><path d="M244.48215,228.80268l-31.73856,0.72659l-42.49839,-53.93172l28.43311,-4.92128z" data-paper-data="{&quot;index&quot;:null}" fill="#4f85e2" stroke="#4f85e2" stroke-width="0" stroke-linecap="butt"/><path d="M199.82688,167.72957l44.87895,56.95269" data-paper-data="{&quot;index&quot;:null}" fill="#4f85e2" stroke="#4f85e2" stroke-width="9" stroke-linecap="round"/><path d="M171.93156,174.05563l27.46433,-4.81181" data-paper-data="{&quot;index&quot;:null}" fill="#4f85e2" stroke="#4f85e2" stroke-width="9" stroke-linecap="round"/><path d="M211.49239,225.56148l-41.73607,-52.96429" data-paper-data="{&quot;index&quot;:null}" fill="#4f85e2" stroke="#4f85e2" stroke-width="9" stroke-linecap="round"/></g></g></g></svg>