<svg version="1.1" xmlns="http://www.w3.org/2000/svg" xmlns:xlink="http://www.w3.org/1999/xlink" width="26.05256" height="44.19527" viewBox="0,0,26.05256,44.19527"><g transform="translate(-162.12204,-158.69628)"><g data-paper-data="{&quot;isPaintingLayer&quot;:true}" fill-rule="nonzero" stroke="none" stroke-width="1" stroke-linecap="butt" stroke-linejoin="miter" stroke-miterlimit="10" stroke-dasharray="" stroke-dashoffset="0" style="mix-blend-mode: normal"><path d="M183.94032,197.86335c-2.11714,1.32321 -4.76356,2.11714 -7.14534,2.11714h-1.58785c0,0.26464 -0.26464,0.26464 -0.26464,0.52928c-1.32321,1.32321 -3.17571,2.38178 -5.02821,2.38178h-0.52928c-3.70499,0 -6.8807,-2.91107 -7.14534,-6.8807v-0.26464c0,-1.32321 -0.26464,-3.70499 0,-6.35142c0,-1.8525 0.26464,-4.76356 0.26464,-4.76356c0,-1.8525 0.79393,-3.44035 1.8525,-4.76356c-1.05857,-2.11714 -1.32321,-4.49892 -0.79393,-7.14534v-0.52928c0.26464,-1.58785 0.52928,-3.96964 1.58785,-6.35142c1.8525,-3.44035 5.29285,-5.29285 9.26248,-5.29285h1.8525c1.32321,-1.05857 2.91107,-1.8525 4.76356,-1.8525c3.96964,0 7.14534,3.44035 7.14534,7.40999c0,0 -0.53113,13.45607 -0.45519,22.8616c0.03807,4.71564 -3.26448,9.60308 -3.77909,8.89548z" fill="#f9a83a"/><path d="" fill="#f9a83a"/><path d="M174.67785,179.07375c3.17571,0.52928 9.79177,1.58785 9.79177,8.20391c0,1.8525 -1.05857,3.96964 -2.64642,5.29285c-1.8525,1.58785 -4.23428,2.38178 -6.61606,1.8525c-1.8525,-0.26464 -3.44035,-1.05857 -4.49892,-1.8525v2.91107c0,0.79393 -0.79393,1.58785 -1.58785,1.58785c-0.79393,0 -1.58785,-0.79393 -1.58785,-1.58785c0,-0.26464 -0.26464,-2.64642 0,-5.82213c0.26464,-1.8525 0.26464,-5.02821 0.26464,-5.02821c0,-0.79393 0.79393,-1.58785 1.58785,-1.58785c0.79393,0 1.58785,0.79393 1.58785,1.58785v0.52928c0,0.79393 0.26464,2.11714 0.52928,3.17571c0.52928,1.05857 2.11714,1.8525 2.64642,2.11714c0.52928,0 0.79393,0.26464 1.32321,0.26464c1.58785,0.26464 3.17571,0 4.23428,-1.05857c1.05857,-0.79393 1.58785,-1.8525 1.58785,-2.91107c0,-2.64642 -2.91107,-3.44035 -7.14534,-4.23428c-3.96964,-0.79393 -5.55749,-3.96964 -5.02821,-8.99784v-0.52928c0.26464,-2.64642 0.79393,-7.14534 5.82213,-6.35142c1.8525,0 3.44035,1.32321 4.76356,2.64642v-2.91107c0,-0.79393 0.79393,-1.58785 1.58785,-1.58785c0.79393,0 1.58785,0.79393 1.58785,1.58785c0,0.26464 -0.52928,10.32105 -0.52928,10.32105c-0.26464,0.79393 -1.05857,1.58785 -1.8525,1.32321c-0.79393,-0.26464 -1.32321,-0.79393 -1.32321,-1.32321v-1.05857c-0.26464,-0.79393 -0.26464,-1.58785 -0.79393,-2.64642c-0.52928,-1.58785 -1.58785,-2.38178 -2.11714,-2.91107c-0.52928,-0.52928 -1.05857,-0.79393 -1.58785,-0.79393c-1.58785,0 -1.8525,0.79393 -2.38178,3.96964v0.52928c-0.52928,3.70499 0.52928,5.02821 2.38178,5.29285" fill="#ffffff"/><path fill="#ffffff"/><path fill="#ffffff"/></g></g></svg>